<svg xmlns="http://www.w3.org/2000/svg" viewBox="0 0 100 100" width="100" height="100">
  <!-- Background Circle -->
  <circle cx="50" cy="50" r="48" fill="#1976d2" />
  
  <!-- Car Silhouette -->
  <path d="M75,55 C75,52.5 72.5,50 70,50 L65,40 C65,40 60,35 50,35 C40,35 35,40 35,40 L30,50 C27.5,50 25,52.5 25,55 L25,65 C25,65 25,70 30,70 L30,75 C30,75 30,80 35,80 L40,80 C45,80 45,75 45,75 L55,75 C55,75 55,80 60,80 L65,80 C70,80 70,75 70,75 L70,70 C75,70 75,65 75,65 Z" fill="white" />
  
  <!-- Wheels -->
  <circle cx="35" cy="65" r="5" fill="#333" />
  <circle cx="65" cy="65" r="5" fill="#333" />
  
  <!-- Windshield -->
  <path d="M40,45 L60,45 L57,40 L43,40 Z" fill="#333" />
  
  <!-- Heart Symbol -->
  <path d="M50,30 C50,30 45,20 35,20 C25,20 20,30 25,40 C30,50 50,60 50,60 C50,60 70,50 75,40 C80,30 75,20 65,20 C55,20 50,30 50,30 Z" fill="#f44336" stroke="white" stroke-width="1" />
</svg>
